<?xml version="1.0" encoding="UTF-8" standalone="no"?>
<svg
   xmlns:dc="http://purl.org/dc/elements/1.1/"
   xmlns:cc="http://creativecommons.org/ns#"
   xmlns:rdf="http://www.w3.org/1999/02/22-rdf-syntax-ns#"
   xmlns:svg="http://www.w3.org/2000/svg"
   xmlns="http://www.w3.org/2000/svg"
   xmlns:sodipodi="http://sodipodi.sourceforge.net/DTD/sodipodi-0.dtd"
   xmlns:inkscape="http://www.inkscape.org/namespaces/inkscape"
   version="1.0"
   width="580pt"
   height="580pt"
   viewBox="0 0 580 580"
   preserveAspectRatio="xMidYMid meet"
   id="svg4742"
   sodipodi:docname="accords.svg"
   inkscape:version="0.92.4 (5da689c313, 2019-01-14)">
  <defs
     id="defs4746" />
  <sodipodi:namedview
     pagecolor="#ffffff"
     bordercolor="#666666"
     borderopacity="1"
     objecttolerance="10"
     gridtolerance="10"
     guidetolerance="10"
     inkscape:pageopacity="0"
     inkscape:pageshadow="2"
     inkscape:window-width="2496"
     inkscape:window-height="1417"
     id="namedview4744"
     showgrid="false"
     inkscape:zoom="1.2781821"
     inkscape:cx="140.85185"
     inkscape:cy="607.74362"
     inkscape:window-x="56"
     inkscape:window-y="-8"
     inkscape:window-maximized="1"
     inkscape:current-layer="svg4742" />
  <metadata
     id="metadata4702">
Created by potrace 1.16, written by Peter Selinger 2001-2019
<rdf:RDF>
  <cc:Work
     rdf:about="">
    <dc:format>image/svg+xml</dc:format>
    <dc:type
       rdf:resource="http://purl.org/dc/dcmitype/StillImage" />
    <dc:title></dc:title>
  </cc:Work>
</rdf:RDF>
</metadata>
  <g
     transform="matrix(0.1,0,0,-0.1,14.0825,562.98365)"
     id="g4740"
     style="fill:#000000;stroke:none">
    <path
       d="M 2167,5485 C 1614.8604,5364.6389 1142,5104 749,4703 407,4356 164.00488,3935.5042 42,3481 -86.072901,3003.8906 -88.330602,2475.4976 42,1999 170.72748,1528.3635 427,1092 787,739 929,598 1043,505 1193,406 1452,235 1715,115 2008,34 c 483.6738,-154.14226 1081.9939,-141.729 1484,0 210,58 425,145 610,247 703,387 1017.036,901.3456 1281.3812,1504.8052 176.4698,402.8536 202.7128,872.3087 158.4282,1309.8833 C 5506.5215,3444.3662 5334,3866 5209,4093 c -124,225 -269,419 -458,610 -393,401 -870.9531,687.1618 -1419,781 -400.0306,68.4944 -719.4382,98.1282 -1165,1 z m 803,-261 c 80,-37 197,-162 298,-320 46,-71 119,-185 163,-253 44,-68 79,-125 77,-126 -2,-1 -57,17 -123,41 -171,63 -238,110 -525,375 -149,137 -279,241 -344,277 l -31,17 45,6 c 25,3 122,7 215,7 163,2 172,1 225,-24 z m 276,-19 c 99,-19 270,-67 310,-88 53,-28 123,-113 170,-209 25,-51 74,-185 110,-298 36,-113 76,-236 90,-273 13,-38 24,-71 24,-73 0,-3 -17,7 -37,23 -21,16 -73,53 -115,82 -93,64 -164,148 -287,337 -203,314 -242,372 -301,442 -33,39 -57,72 -52,72 6,0 45,-7 88,-15 z m -811,-55 c 93,-47 174,-110 375,-293 213,-194 228,-209 205,-203 -11,3 -74,10 -140,15 -170,13 -202,25 -645,252 -113,57 -239,115 -280,129 -41,13 -79,27 -83,31 -9,7 159,64 293,99 106,28 172,21 275,-30 z m 1660,-288 c 142,-96 169,-197 194,-752 5,-107 8,-196 7,-197 -9,-9 -169,203 -203,269 -25,48 -84,209 -139,378 -80,245 -116,339 -182,474 -7,14 248,-121 323,-172 z m -2180,97 c 67,-22 577,-271 604,-295 6,-6 -16,-10 -151,-34 -159,-27 -221,-21 -568,55 -279,61 -364,75 -449,75 -34,0 -61,3 -61,8 0,8 175,122 263,172 123,69 200,73 362,19 z m 2609,-443 c 123,-123 143,-159 152,-268 8,-97 -7,-205 -67,-483 -27,-126 -53,-245 -57,-264 -7,-33 -9,-31 -64,90 -84,182 -85,193 -118,769 -6,102 -17,214 -25,250 -8,36 -14,69 -15,73 0,16 85,-58 194,-167 z m -3060,139 c 55,-8 169,-31 255,-51 86,-19 193,-43 239,-52 l 83,-16 -131,-63 c -160,-77 -221,-89 -535,-103 -259,-12 -420,-26 -499,-44 -31,-8 -56,-10 -54,-6 2,5 44,54 93,111 95,108 190,194 234,211 78,30 176,34 315,13 z m 1588,-264 c 524,-90 982,-439 1214,-926 253,-531 207,-1151 -122,-1645 -215,-323 -541,-562 -919,-672 -403,-118 -835,-77 -1217,113 -270,135 -521,370 -682,636 -95,158 -175,375 -207,561 -27,158 -27,426 1,584 78,452 347,855 743,1113 169,110 395,199 597,235 151,27 437,27 592,1 z M 1555,4247 c -22,-17 -67,-56 -100,-86 -95,-84 -171,-117 -605,-255 -113,-37 -240,-83 -282,-104 -43,-21 -78,-34 -78,-30 0,15 90,190 142,276 60,99 102,133 208,166 106,34 189,44 481,57 140,6 256,13 258,15 2,2 7,2 10,-1 3,-3 -13,-20 -34,-38 z m 3290,-130 c 85,-131 165,-291 165,-330 0,-106 -64,-272 -209,-546 -50,-94 -98,-189 -107,-211 -9,-23 -20,-38 -24,-33 -13,16 -43,230 -41,303 2,97 21,213 71,435 49,219 70,341 70,418 0,31 3,57 8,57 4,0 34,-42 67,-93 z M 1158,3810 C 1066,3673 1018,3630 825,3505 528,3312 419,3238 366,3190 c -64,-60 -65,-59 -41,66 22,114 71,280 94,317 54,88 213,166 551,272 135,42 247,79 249,81 2,2 8,4 12,4 4,0 -29,-54 -73,-120 z m 3988,-357 c 25,-87 48,-187 51,-223 5,-61 3,-70 -36,-145 -48,-96 -106,-169 -289,-369 -77,-83 -152,-166 -167,-184 -15,-18 -30,-31 -32,-28 -12,12 21,257 45,331 14,44 89,206 167,360 78,154 155,317 171,362 19,54 31,77 37,68 4,-8 28,-85 53,-172 z M 939,3359 C 881,3188 844,3136 575,2845 439,2697 375,2621 330,2550 l -35,-55 -7,50 c -3,28 -7,124 -7,214 -1,194 5,214 97,309 78,80 152,134 365,269 100,63 193,123 207,133 14,10 26,17 28,15 1,-1 -16,-58 -39,-126 z M 841,2849 C 831,2674 825,2658 627,2268 553,2123 483,1974 470,1936 l -23,-69 -14,34 c -32,73 -104,347 -105,393 0,38 9,67 41,130 48,95 112,177 297,377 74,81 144,159 155,173 12,15 23,25 25,23 2,-2 0,-68 -5,-148 z m 4397,-110 -3,-196 -30,-43 c -48,-69 -155,-159 -307,-258 -303,-198 -353,-230 -356,-227 -2,1 15,56 38,121 59,171 100,230 371,524 141,153 203,228 245,294 l 29,46 8,-32 c 5,-18 7,-121 5,-229 z M 869,2413 c 7,-43 19,-104 27,-137 21,-80 7,-184 -62,-500 -30,-137 -61,-299 -68,-360 l -12,-111 -73,110 c -40,61 -92,151 -117,200 l -45,90 11,68 c 18,112 49,192 159,407 58,113 116,229 130,258 14,28 28,52 31,52 3,0 12,-35 19,-77 z m 4321,-154 c -23,-108 -77,-294 -97,-336 -20,-42 -121,-110 -233,-156 -66,-28 -311,-109 -554,-184 -22,-7 -25,-12 61,113 96,142 162,195 583,464 56,36 136,93 179,126 42,34 77,61 78,60 1,-1 -6,-40 -17,-87 z M 1126,1663 c 8,-49 19,-194 24,-323 10,-221 21,-362 37,-455 l 6,-39 -44,34 c -55,44 -242,230 -264,263 -26,40 -36,146 -25,250 5,51 35,210 67,354 l 57,263 64,-130 c 51,-105 66,-147 78,-217 z m 3835,-40 c -74,-143 -165,-280 -202,-302 -79,-48 -250,-75 -544,-86 -88,-3 -189,-8 -225,-11 l -65,-6 40,34 c 22,18 69,59 104,91 88,80 175,118 521,231 162,52 322,109 355,124 33,16 62,28 63,26 2,-1 -19,-47 -47,-101 z m -3693,-85 c 15,-18 56,-64 90,-101 91,-97 116,-156 257,-598 31,-97 72,-209 91,-249 19,-40 33,-75 30,-77 -7,-7 -184,85 -289,151 -76,47 -103,70 -119,99 -35,69 -58,187 -69,347 -13,211 -25,460 -21,460 2,0 15,-15 30,-32 z m 455,-405 c 142,-95 174,-134 368,-438 78,-121 167,-254 200,-294 32,-41 58,-76 56,-77 -6,-6 -159,28 -281,62 -119,34 -135,41 -171,78 -46,47 -101,148 -140,256 -28,80 -155,475 -155,484 0,10 5,7 123,-71 z m 2937,38 c 0,-15 -255,-267 -301,-297 -41,-28 -47,-29 -158,-28 -120,1 -170,9 -431,68 -85,19 -182,40 -214,46 l -60,12 123,60 c 147,72 203,84 431,98 430,26 507,31 540,39 48,12 70,13 70,2 z M 2165,925 c 61,-20 129,-47 152,-61 64,-37 172,-127 348,-289 88,-81 197,-175 242,-208 73,-55 80,-63 60,-69 -36,-10 -379,-9 -418,2 -45,13 -112,70 -177,153 -38,47 -253,371 -336,506 -6,9 -5,12 5,8 8,-3 64,-22 124,-42 z m 1300,-46 c 39,-6 158,-30 265,-54 229,-52 358,-75 411,-75 22,0 39,-4 39,-9 0,-15 -164,-116 -286,-178 l -112,-56 -73,17 c -106,24 -204,66 -464,201 l -230,119 100,18 c 55,11 118,23 140,27 43,9 99,6 210,-10 z m -725,-58 c 116,-9 182,-35 475,-190 109,-57 246,-124 304,-147 123,-50 131,-41 -94,-105 -184,-53 -256,-59 -315,-29 -105,53 -176,109 -395,310 -82,76 -161,148 -175,160 l -25,21 65,-6 c 36,-4 108,-10 160,-14 z"
       id="path4704"
       inkscape:connector-curvature="0"
       sodipodi:nodetypes="scaacccccaaccssccssccccccccccscsccccsccccccccccccsccccccccssccscccccscsccccccccccccccccccccccccccscccssccscccccsscccccccsscscccsccsccsccccccccssccccccccccscccccccccccccccccccccccsccscccccsccccccccccccccccccccccccccsccccsccccccccscsccccccccsccscccccccccssccccaccccccccccccc" />
    <path
       d="m 2731,4318 c -51,-27 -47,-108 5,-129 56,-21 113,28 98,85 -11,45 -61,66 -103,44 z"
       id="path4706"
       inkscape:connector-curvature="0" />
    <path
       d="m 1995,4122 c -59,-12 -75,-84 -28,-122 47,-37 113,-4 113,55 0,45 -40,77 -85,67 z"
       id="path4708"
       inkscape:connector-curvature="0" />
    <path
       d="m 3494,4117 c -51,-26 -59,-83 -18,-116 15,-12 34,-21 44,-21 33,0 70,39 70,74 0,50 -54,86 -96,63 z"
       id="path4710"
       inkscape:connector-curvature="0" />
    <path
       d="m 2658,3710 c -105,-56 -155,-207 -113,-346 8,-27 33,-80 56,-119 65,-109 79,-162 86,-309 l 6,-129 -124,6 c -141,7 -196,22 -304,86 -119,70 -216,87 -321,56 -103,-31 -164,-110 -164,-215 0,-105 61,-184 164,-215 105,-31 202,-14 321,56 108,64 163,79 304,86 l 124,6 -6,-124 c -7,-141 -22,-196 -86,-304 -70,-119 -87,-216 -56,-321 31,-103 110,-164 215,-164 105,0 184,61 215,164 31,105 14,202 -56,321 -64,108 -79,163 -86,304 l -6,124 129,-6 c 147,-7 200,-21 309,-86 119,-70 216,-87 321,-56 103,31 164,110 164,215 0,105 -61,184 -164,215 -105,31 -202,14 -321,-56 -109,-65 -162,-79 -309,-86 l -129,-6 6,129 c 7,147 21,200 86,309 23,39 48,92 56,119 42,140 -9,292 -116,346 -51,27 -150,26 -201,0 z"
       id="path4712"
       inkscape:connector-curvature="0" />
    <path
       d="m 1412,3554 c -47,-32 -16,-124 42,-124 13,0 35,9 50,21 71,55 -18,155 -92,103 z"
       id="path4714"
       inkscape:connector-curvature="0" />
    <path
       d="m 4021,3544 c -27,-35 -26,-59 4,-89 46,-47 119,-19 117,44 -2,70 -79,98 -121,45 z"
       id="path4716"
       inkscape:connector-curvature="0" />
    <path
       d="m 2291,3273 c -50,-26 -76,-66 -76,-118 0,-79 77,-144 152,-130 48,9 99,60 108,108 19,100 -95,187 -184,140 z"
       id="path4718"
       inkscape:connector-curvature="0" />
    <path
       d="m 3121,3273 c -50,-26 -76,-66 -76,-118 0,-79 77,-144 152,-130 48,9 99,60 108,108 19,100 -95,187 -184,140 z"
       id="path4720"
       inkscape:connector-curvature="0" />
    <path
       d="m 1221,2808 c -51,-27 -47,-108 5,-129 56,-21 113,28 98,85 -11,45 -61,66 -103,44 z"
       id="path4722"
       inkscape:connector-curvature="0" />
    <path
       d="m 4241,2808 c -51,-27 -47,-108 5,-129 56,-21 113,28 98,85 -11,45 -61,66 -103,44 z"
       id="path4724"
       inkscape:connector-curvature="0" />
    <path
       d="m 2301,2443 c -50,-26 -76,-66 -76,-118 0,-79 77,-144 152,-130 48,9 99,60 108,108 19,100 -95,187 -184,140 z"
       id="path4726"
       inkscape:connector-curvature="0" />
    <path
       d="m 3131,2443 c -50,-26 -76,-66 -76,-118 0,-79 77,-144 152,-130 48,9 99,60 108,108 19,100 -95,187 -184,140 z"
       id="path4728"
       inkscape:connector-curvature="0" />
    <path
       d="m 1407,2042 c -10,-10 -17,-35 -17,-55 0,-30 5,-39 30,-52 16,-8 37,-15 48,-15 26,0 62,42 62,73 0,56 -86,90 -123,49 z"
       id="path4730"
       inkscape:connector-curvature="0" />
    <path
       d="m 4021,2034 c -12,-15 -21,-34 -21,-44 0,-10 9,-29 21,-44 41,-52 119,-25 121,43 2,68 -79,98 -121,45 z"
       id="path4732"
       inkscape:connector-curvature="0" />
    <path
       d="m 1966,1489 c -58,-46 -17,-127 62,-120 23,2 52,41 52,69 0,33 -36,72 -67,72 -11,0 -32,-9 -47,-21 z"
       id="path4734"
       inkscape:connector-curvature="0" />
    <path
       d="m 3472,1487 c -44,-47 -12,-117 53,-117 64,0 90,79 39,119 -35,27 -65,27 -92,-2 z"
       id="path4736"
       inkscape:connector-curvature="0" />
    <path
       d="m 2731,1298 c -51,-27 -47,-108 5,-129 56,-21 113,28 98,85 -11,45 -61,66 -103,44 z"
       id="path4738"
       inkscape:connector-curvature="0" />
  </g>
  <circle
     style="opacity:1;fill:none;fill-opacity:1;stroke:#000000;stroke-width:4.28598452;stroke-linecap:round;stroke-linejoin:round;stroke-miterlimit:4;stroke-dasharray:none;stroke-opacity:1;paint-order:markers stroke fill"
     id="path4748"
     cx="289.8765"
     cy="288.03381"
     r="280.89658"
     transform="rotate(0.18369144)" />
</svg>
