<svg xmlns="http://www.w3.org/2000/svg" version="1.0" width="580pt" height="580pt" viewBox="0 0 580 580"><path d="M230.783 14.484c-55.214 12.036-102.5 38.1-141.8 78.2-34.2 34.7-58.5 76.75-70.7 122.2-12.808 47.71-13.034 100.55 0 148.2 12.872 47.063 38.5 90.7 74.5 126 14.2 14.1 25.6 23.4 40.6 33.3 25.9 17.1 52.2 29.1 81.5 37.2 48.367 15.414 108.199 14.173 148.4 0 21-5.8 42.5-14.5 61-24.7 70.3-38.7 101.703-90.135 128.138-150.48 17.647-40.286 20.27-87.232 15.842-130.99-3.528-34.867-20.78-77.03-33.28-99.73-12.4-22.5-26.9-41.9-45.8-61-39.3-40.1-87.096-68.717-141.9-78.1-40.004-6.85-71.944-9.813-116.5-.1zm80.3 26.1c8 3.7 19.7 16.2 29.8 32 4.6 7.1 11.9 18.5 16.3 25.3 4.4 6.8 7.9 12.5 7.7 12.6-.2.1-5.7-1.7-12.3-4.1-17.1-6.3-23.8-11-52.5-37.5-14.9-13.7-27.9-24.1-34.4-27.7l-3.1-1.7 4.5-.6c2.5-.3 12.2-.7 21.5-.7 16.3-.2 17.2-.1 22.5 2.4zm27.6 1.9c9.9 1.9 27 6.7 31 8.8 5.3 2.8 12.3 11.3 17 20.9 2.5 5.1 7.4 18.5 11 29.8 3.6 11.3 7.6 23.6 9 27.3 1.3 3.8 2.4 7.1 2.4 7.3 0 .3-1.7-.7-3.7-2.3-2.1-1.6-7.3-5.3-11.5-8.2-9.3-6.4-16.4-14.8-28.7-33.7-20.3-31.4-24.2-37.2-30.1-44.2-3.3-3.9-5.7-7.2-5.2-7.2.6 0 4.5.7 8.8 1.5zm-81.1 5.5c9.3 4.7 17.4 11 37.5 29.3 21.3 19.4 22.8 20.9 20.5 20.3-1.1-.3-7.4-1-14-1.5-17-1.3-20.2-2.5-64.5-25.2-11.3-5.7-23.9-11.5-28-12.9-4.1-1.3-7.9-2.7-8.3-3.1-.9-.7 15.9-6.4 29.3-9.9 10.6-2.8 17.2-2.1 27.5 3zm166 28.8c14.2 9.6 16.9 19.7 19.4 75.2.5 10.7.8 19.6.7 19.7-.9.9-16.9-20.3-20.3-26.9-2.5-4.8-8.4-20.9-13.9-37.8-8-24.5-11.6-33.9-18.2-47.4-.7-1.4 24.8 12.1 32.3 17.2zm-218-9.7c6.7 2.2 57.7 27.1 60.4 29.5.6.6-1.6 1-15.1 3.4-15.9 2.7-22.1 2.1-56.8-5.5-27.9-6.1-36.4-7.5-44.9-7.5-3.4 0-6.1-.3-6.1-.8 0-.8 17.5-12.2 26.3-17.2 12.3-6.9 20-7.3 36.2-1.9zm260.9 44.3c12.3 12.3 14.3 15.9 15.2 26.8.8 9.7-.7 20.5-6.7 48.3-2.7 12.6-5.3 24.5-5.7 26.4-.7 3.3-.9 3.1-6.4-9-8.4-18.2-8.5-19.3-11.8-76.9-.6-10.2-1.7-21.4-2.5-25-.8-3.6-1.4-6.9-1.5-7.3 0-1.6 8.5 5.8 19.4 16.7zm-306-13.9c5.5.8 16.9 3.1 25.5 5.1 8.6 1.9 19.3 4.3 23.9 5.2l8.3 1.6-13.1 6.3c-16 7.7-22.1 8.9-53.5 10.3-25.9 1.2-42 2.6-49.9 4.4-3.1.8-5.6 1-5.4.6.2-.5 4.4-5.4 9.3-11.1 9.5-10.8 19-19.4 23.4-21.1 7.8-3 17.6-3.4 31.5-1.3zm158.8 26.4c52.4 9 98.2 43.9 121.4 92.6 25.3 53.1 20.7 115.1-12.2 164.5-21.5 32.3-54.1 56.2-91.9 67.2-40.3 11.8-83.5 7.7-121.7-11.3-27-13.5-52.1-37-68.2-63.6-9.5-15.8-17.5-37.5-20.7-56.1-2.7-15.8-2.7-42.6.1-58.4 7.8-45.2 34.7-85.5 74.3-111.3 16.9-11 39.5-19.9 59.7-23.5 15.1-2.7 43.7-2.7 59.2-.1zm-149.7 14.4c-2.2 1.7-6.7 5.6-10 8.6-9.5 8.4-17.1 11.7-60.5 25.5-11.3 3.7-24 8.3-28.2 10.4-4.3 2.1-7.8 3.4-7.8 3 0-1.5 9-19 14.2-27.6 6-9.9 10.2-13.3 20.8-16.6 10.6-3.4 18.9-4.4 48.1-5.7 14-.6 25.6-1.3 25.8-1.5.2-.2.7-.2 1 .1.3.3-1.3 2-3.4 3.8zm329 13c8.5 13.1 16.5 29.1 16.5 33 0 10.6-6.4 27.2-20.9 54.6-5 9.4-9.8 18.9-10.7 21.1-.9 2.3-2 3.8-2.4 3.3-1.3-1.6-4.3-23-4.1-30.3.2-9.7 2.1-21.3 7.1-43.5 4.9-21.9 7-34.1 7-41.8 0-3.1.3-5.7.8-5.7.4 0 3.4 4.2 6.7 9.3zm-368.7 30.7c-9.2 13.7-14 18-33.3 30.5-29.7 19.3-40.6 26.7-45.9 31.5-6.4 6-6.5 5.9-4.1-6.6 2.2-11.4 7.1-28 9.4-31.7 5.4-8.8 21.3-16.6 55.1-27.2 13.5-4.2 24.7-7.9 24.9-8.1.2-.2.8-.4 1.2-.4.4 0-2.9 5.4-7.3 12zm398.8 35.7c2.5 8.7 4.8 18.7 5.1 22.3.5 6.1.3 7-3.6 14.5-4.8 9.6-10.6 16.9-28.9 36.9-7.7 8.3-15.2 16.6-16.7 18.4-1.5 1.8-3 3.1-3.2 2.8-1.2-1.2 2.1-25.7 4.5-33.1 1.4-4.4 8.9-20.6 16.7-36 7.8-15.4 15.5-31.7 17.1-36.2 1.9-5.4 3.1-7.7 3.7-6.8.4.8 2.8 8.5 5.3 17.2zm-420.7 9.4c-5.8 17.1-9.5 22.3-36.4 51.4-13.6 14.8-20 22.4-24.5 29.5l-3.5 5.5-.7-5c-.3-2.8-.7-12.4-.7-21.4-.1-19.4.5-21.4 9.7-30.9 7.8-8 15.2-13.4 36.5-26.9 10-6.3 19.3-12.3 20.7-13.3 1.4-1 2.6-1.7 2.8-1.5.1.1-1.6 5.8-3.9 12.6zm-9.8 51c-1 17.5-1.6 19.1-21.4 58.1-7.4 14.5-14.4 29.4-15.7 33.2l-2.3 6.9-1.4-3.4c-3.2-7.3-10.4-34.7-10.5-39.3 0-3.8.9-6.7 4.1-13 4.8-9.5 11.2-17.7 29.7-37.7 7.4-8.1 14.4-15.9 15.5-17.3 1.2-1.5 2.3-2.5 2.5-2.3.2.2 0 6.8-.5 14.8zm439.7 11l-.3 19.6-3 4.3c-4.8 6.9-15.5 15.9-30.7 25.8-30.3 19.8-35.3 23-35.6 22.7-.2-.1 1.5-5.6 3.8-12.1 5.9-17.1 10-23 37.1-52.4 14.1-15.3 20.3-22.8 24.5-29.4l2.9-4.6.8 3.2c.5 1.8.7 12.1.5 22.9zm-436.9 32.6c.7 4.3 1.9 10.4 2.7 13.7 2.1 8 .7 18.4-6.2 50-3 13.7-6.1 29.9-6.8 36l-1.2 11.1-7.3-11c-4-6.1-9.2-15.1-11.7-20l-4.5-9 1.1-6.8c1.8-11.2 4.9-19.2 15.9-40.7 5.8-11.3 11.6-22.9 13-25.8 1.4-2.8 2.8-5.2 3.1-5.2.3 0 1.2 3.5 1.9 7.7zm432.1 15.4c-2.3 10.8-7.7 29.4-9.7 33.6-2 4.2-12.1 11-23.3 15.6-6.6 2.8-31.1 10.9-55.4 18.4-2.2.7-2.5 1.2 6.1-11.3 9.6-14.2 16.2-19.5 58.3-46.4 5.6-3.6 13.6-9.3 17.9-12.6 4.2-3.4 7.7-6.1 7.8-6 .1.1-.6 4-1.7 8.7zm-406.4 59.6c.8 4.9 1.9 19.4 2.4 32.3 1 22.1 2.1 36.2 3.7 45.5l.6 3.9-4.4-3.4c-5.5-4.4-24.2-23-26.4-26.3-2.6-4-3.6-14.6-2.5-25 .5-5.1 3.5-21 6.7-35.4l5.7-26.3 6.4 13c5.1 10.5 6.6 14.7 7.8 21.7zm383.5 4c-7.4 14.3-16.5 28-20.2 30.2-7.9 4.8-25 7.5-54.4 8.6-8.8.3-18.9.8-22.5 1.1l-6.5.6 4-3.4c2.2-1.8 6.9-5.9 10.4-9.1 8.8-8 17.5-11.8 52.1-23.1 16.2-5.2 32.2-10.9 35.5-12.4 3.3-1.6 6.2-2.8 6.3-2.6.2.1-1.9 4.7-4.7 10.1zm-369.3 8.5c1.5 1.8 5.6 6.4 9 10.1 9.1 9.7 11.6 15.6 25.7 59.8 3.1 9.7 7.2 20.9 9.1 24.9 1.9 4 3.3 7.5 3 7.7-.7.7-18.4-8.5-28.9-15.1-7.6-4.7-10.3-7-11.9-9.9-3.5-6.9-5.8-18.7-6.9-34.7-1.3-21.1-2.5-46-2.1-46 .2 0 1.5 1.5 3 3.2zm45.5 40.5c14.2 9.5 17.4 13.4 36.8 43.8 7.8 12.1 16.7 25.4 20 29.4 3.2 4.1 5.8 7.6 5.6 7.7-.6.6-15.9-2.8-28.1-6.2-11.9-3.4-13.5-4.1-17.1-7.8-4.6-4.7-10.1-14.8-14-25.6-2.8-8-15.5-47.5-15.5-48.4 0-1 .5-.7 12.3 7.1zm293.7-3.8c0 1.5-25.5 26.7-30.1 29.7-4.1 2.8-4.7 2.9-15.8 2.8-12-.1-17-.9-43.1-6.8-8.5-1.9-18.2-4-21.4-4.6l-6-1.2 12.3-6c14.7-7.2 20.3-8.4 43.1-9.8 43-2.6 50.7-3.1 54-3.9 4.8-1.2 7-1.3 7-.2zm-249.5 24.6c6.1 2 12.9 4.7 15.2 6.1 6.4 3.7 17.2 12.7 34.8 28.9 8.8 8.1 19.7 17.5 24.2 20.8 7.3 5.5 8 6.3 6 6.9-3.6 1-37.9.9-41.8-.2-4.5-1.3-11.2-7-17.7-15.3-3.8-4.7-25.3-37.1-33.6-50.6-.6-.9-.5-1.2.5-.8.8.3 6.4 2.2 12.4 4.2zm130 4.6c3.9.6 15.8 3 26.5 5.4 22.9 5.2 35.8 7.5 41.1 7.5 2.2 0 3.9.4 3.9.9 0 1.5-16.4 11.6-28.6 17.8l-11.2 5.6-7.3-1.7c-10.6-2.4-20.4-6.6-46.4-20.1l-23-11.9 10-1.8c5.5-1.1 11.8-2.3 14-2.7 4.3-.9 9.9-.6 21 1zm-72.5 5.8c11.6.9 18.2 3.5 47.5 19 10.9 5.7 24.6 12.4 30.4 14.7 12.3 5 13.1 4.1-9.4 10.5-18.4 5.3-25.6 5.9-31.5 2.9-10.5-5.3-17.6-10.9-39.5-31-8.2-7.6-16.1-14.8-17.5-16l-2.5-2.1 6.5.6c3.6.4 10.8 1 16 1.4z"/><path d="M287.183 131.184c-5.1 2.7-4.7 10.8.5 12.9 5.6 2.1 11.3-2.8 9.8-8.5-1.1-4.5-6.1-6.6-10.3-4.4zm-73.6 19.6c-5.9 1.2-7.5 8.4-2.8 12.2 4.7 3.7 11.3.4 11.3-5.5 0-4.5-4-7.7-8.5-6.7zm149.9.5c-5.1 2.6-5.9 8.3-1.8 11.6 1.5 1.2 3.4 2.1 4.4 2.1 3.3 0 7-3.9 7-7.4 0-5-5.4-8.6-9.6-6.3zm-83.601 40.7c-10.5 5.6-15.5 20.7-11.3 34.6.8 2.7 3.3 8 5.6 11.9 6.5 10.9 7.9 16.2 8.6 30.9l.6 12.9-12.4-.6c-14.1-.7-19.6-2.2-30.4-8.6-11.9-7-21.6-8.7-32.1-5.6-10.3 3.1-16.4 11-16.4 21.5s6.1 18.4 16.4 21.5c10.5 3.1 20.2 1.4 32.1-5.6 10.8-6.4 16.3-7.9 30.4-8.6l12.4-.6-.6 12.4c-.7 14.1-2.2 19.6-8.6 30.4-7 11.9-8.7 21.6-5.6 32.1 3.1 10.3 11 16.4 21.5 16.4s18.4-6.1 21.5-16.4c3.1-10.5 1.4-20.2-5.6-32.1-6.4-10.8-7.9-16.3-8.6-30.4l-.6-12.4 12.9.6c14.7.7 20 2.1 30.9 8.6 11.9 7 21.6 8.7 32.1 5.6 10.3-3.1 16.4-11 16.4-21.5s-6.1-18.4-16.4-21.5c-10.5-3.1-20.2-1.4-32.1 5.6-10.9 6.5-16.2 7.9-30.9 8.6l-12.9.6.6-12.9c.7-14.7 2.1-20 8.6-30.9 2.3-3.9 4.8-9.2 5.6-11.9 4.2-14-.9-29.2-11.6-34.6-5.1-2.7-15-2.6-20.1 0zm-124.599 15.6c-4.7 3.2-1.6 12.4 4.2 12.4 1.3 0 3.5-.9 5-2.1 7.1-5.5-1.8-15.5-9.2-10.3zm260.9 1c-2.7 3.5-2.6 5.9.4 8.9 4.6 4.7 11.9 1.9 11.7-4.4-.2-7-7.9-9.8-12.1-4.5z"/><path d="M243.183 235.684c-5 2.6-7.6 6.6-7.6 11.8 0 7.9 7.7 14.4 15.2 13 4.8-.9 9.9-6 10.8-10.8 1.9-10-9.5-18.7-18.4-14zm83 0c-5 2.6-7.6 6.6-7.6 11.8 0 7.9 7.7 14.4 15.2 13 4.8-.9 9.9-6 10.8-10.8 1.9-10-9.5-18.7-18.4-14zm-190 46.5c-5.1 2.7-4.7 10.8.5 12.9 5.6 2.1 11.3-2.8 9.8-8.5-1.1-4.5-6.1-6.6-10.3-4.4zm302 0c-5.1 2.7-4.7 10.8.5 12.9 5.6 2.1 11.3-2.8 9.8-8.5-1.1-4.5-6.1-6.6-10.3-4.4zm-194 36.5c-5 2.6-7.6 6.6-7.6 11.8 0 7.9 7.7 14.4 15.2 13 4.8-.9 9.9-6 10.8-10.8 1.9-10-9.5-18.7-18.4-14zm83 0c-5 2.6-7.6 6.6-7.6 11.8 0 7.9 7.7 14.4 15.2 13 4.8-.9 9.9-6 10.8-10.8 1.9-10-9.5-18.7-18.4-14zm-172.4 40.1c-1 1-1.7 3.5-1.7 5.5 0 3 .5 3.9 3 5.2 1.6.8 3.7 1.5 4.8 1.5 2.6 0 6.2-4.2 6.2-7.3 0-5.6-8.6-9-12.3-4.9zm261.4.8c-1.2 1.5-2.1 3.4-2.1 4.4 0 1 .9 2.9 2.1 4.4 4.1 5.2 11.9 2.5 12.1-4.3.2-6.8-7.9-9.8-12.1-4.5zm-205.5 54.5c-5.8 4.6-1.7 12.7 6.2 12 2.3-.2 5.2-4.1 5.2-6.9 0-3.3-3.6-7.2-6.7-7.2-1.1 0-3.2.9-4.7 2.1zm150.6.2c-4.4 4.7-1.2 11.7 5.3 11.7 6.4 0 9-7.9 3.9-11.9-3.5-2.7-6.5-2.7-9.2.2zm-74.1 18.9c-5.1 2.7-4.7 10.8.5 12.9 5.6 2.1 11.3-2.8 9.8-8.5-1.1-4.5-6.1-6.6-10.3-4.4z"/><circle cx="289.877" cy="288.034" r="280.897" transform="rotate(.184)" fill="none" stroke="#000" stroke-width="4.286" stroke-linecap="round" stroke-linejoin="round" paint-order="markers stroke fill"/></svg>