<svg xmlns="http://www.w3.org/2000/svg" viewBox="0 0 496 512"><path d="M245.8 214.9l-33.22 17.28c-9.43-19.58-25.24-19.93-27.46-19.93-22.13 0-33.22 14.61-33.22 43.84 0 23.57 9.21 43.84 33.22 43.84 14.47 0 24.65-7.09 30.57-21.26l30.55 15.5c-6.17 11.51-25.69 38.98-65.1 38.98-22.6 0-73.96-10.32-73.96-77.05 0-58.69 43-77.06 72.63-77.06 30.72-.01 52.7 11.95 65.99 35.86zm143.1 0l-32.78 17.28c-9.5-19.77-25.72-19.93-27.9-19.93-22.14 0-33.22 14.61-33.22 43.84 0 23.55 9.23 43.84 33.22 43.84 14.45 0 24.65-7.09 30.54-21.26l31 15.5c-2.1 3.75-21.39 38.98-65.09 38.98-22.69 0-73.96-9.87-73.96-77.05 0-58.67 42.97-77.06 72.63-77.06 30.71-.01 52.58 11.95 65.56 35.86zM247.6 8.05C104.7 8.05 0 123.1 0 256c0 138.5 113.6 248 247.6 248C377.5 504 496 403.1 496 256 496 118.1 389.4 8 247.6 8zm.87 450.8c-112.5 0-203.7-93.04-203.7-202.8 0-105.4 85.43-203.3 203.7-203.3 112.5 0 202.8 89.46 202.8 203.3-.01 121.7-99.68 202.8-202.8 202.8z"/></svg>