<svg xmlns="http://www.w3.org/2000/svg" viewBox="0 0 640 512"><path d="M524.5 69.84a1.5 1.5 0 00-.764-.7A485.1 485.1 0 00404.1 32.03a1.816 1.816 0 00-1.923.91 337.5 337.5 0 00-14.9 30.6 447.8 447.8 0 00-134.4 0 309.5 309.5 0 00-15.14-30.6 1.89 1.89 0 00-1.924-.91A483.7 483.7 0 00116.1 69.14a1.712 1.712 0 00-.788.676C39.07 183.7 18.19 294.7 28.43 404.4a2.016 2.016 0 00.765 1.375A487.7 487.7 0 00176 479.9a1.9 1.9 0 002.063-.676A348.2 348.2 0 00208.1 430.4a1.86 1.86 0 00-1.019-2.588 321.2 321.2 0 01-45.87-21.85 1.885 1.885 0 01-.185-3.126 251.047 251.047 0 009.109-7.137 1.819 1.819 0 011.9-.256c96.23 43.92 200.4 43.92 295.5 0a1.812 1.812 0 011.924.233 234.533 234.533 0 009.132 7.16 1.884 1.884 0 01-.162 3.126 301.4 301.4 0 01-45.89 21.83 1.875 1.875 0 00-1 2.611 391.1 391.1 0 0030.01 48.81 1.864 1.864 0 002.063.7A486 486 0 00610.7 405.7a1.882 1.882 0 00.765-1.352C623.7 277.6 590.9 167.5 524.5 69.84zm-302 267.76c-28.97 0-52.84-26.59-52.84-59.24s23.44-59.26 52.84-59.26c29.67 0 53.31 26.82 52.84 59.24-.04 31.76-23.44 59.26-52.84 59.26zm195.4 0c-28.97 0-52.84-26.59-52.84-59.24s23.34-59.26 52.84-59.26c29.67 0 53.31 26.82 52.84 59.24-.04 31.76-23.24 59.26-52.84 59.26z"/></svg>