<svg version="1.0" xmlns="http://www.w3.org/2000/svg"
 width="534.000000pt" height="534.000000pt" viewBox="0 0 534.000000 534.000000"
 preserveAspectRatio="xMidYMid meet">
<g transform="translate(0.000000,534.000000) scale(0.100000,-0.100000)"
fill="#000000" stroke="none">
<path d="M4182 5201 c-201 -50 -377 -191 -472 -380 -62 -124 -74 -183 -74
-361 -1 -173 8 -221 61 -347 35 -81 35 -83 17 -107 -25 -32 -504 -594 -527
-619 -21 -21 -24 -20 -113 17 -118 49 -169 58 -363 63 -266 7 -391 -19 -588
-123 -100 -53 -87 -56 -228 66 -166 145 -150 110 -150 333 0 216 -6 246 -72
355 -77 126 -192 219 -325 263 -64 21 -90 24 -223 23 -129 0 -159 -4 -215 -23
-191 -67 -350 -242 -389 -429 -16 -79 -14 -277 4 -347 28 -105 74 -184 155
-265 133 -133 232 -170 456 -170 115 0 154 4 209 21 37 11 77 18 89 15 20 -6
238 -190 264 -223 18 -25 15 -51 -16 -128 -58 -141 -67 -201 -67 -425 1 -229
11 -284 80 -444 l35 -81 -93 -87 c-128 -121 -119 -118 -219 -75 -141 60 -193
70 -378 70 -139 0 -177 -3 -243 -21 -203 -57 -375 -184 -483 -357 -91 -147
-133 -334 -120 -539 8 -126 27 -208 71 -303 99 -214 275 -368 510 -443 98 -32
345 -40 465 -16 169 35 306 111 426 237 115 122 178 242 210 399 26 129 16
366 -21 479 -14 46 -24 93 -21 106 3 12 49 62 102 109 108 98 97 96 209 35 91
-49 228 -94 334 -110 53 -7 143 -10 245 -6 179 6 271 26 415 93 44 20 85 33
96 30 29 -7 175 -160 175 -182 -1 -11 -7 -46 -15 -79 -20 -82 -19 -280 1 -359
52 -202 225 -374 425 -421 84 -19 274 -19 358 0 199 47 373 219 426 421 20 78
20 290 0 368 -53 204 -227 374 -431 422 -54 12 -100 15 -209 10 -77 -3 -160
-8 -184 -12 l-44 -6 -72 75 c-40 42 -76 85 -80 97 -4 14 8 52 39 118 74 159
87 221 93 424 8 276 -14 382 -127 595 -60 113 -60 115 -43 138 16 21 449 529
509 598 28 31 53 34 134 12 85 -23 336 -20 432 4 206 53 375 192 472 388 57
116 69 177 70 358 0 140 -3 170 -23 235 -80 260 -270 445 -526 510 -104 27
-325 27 -433 1z m-1382 -2182 c181 -50 338 -178 418 -339 80 -164 90 -283 35
-441 -69 -201 -216 -347 -417 -414 -110 -37 -176 -41 -278 -16 -251 59 -435
240 -499 489 -25 100 -24 152 7 258 41 144 114 254 222 339 164 129 340 172
512 124z"/>
</g>
</svg>
